<?xml version="1.0" standalone="no"?>
<!DOCTYPE svg PUBLIC "-//W3C//DTD SVG 20010904//EN"
 "http://www.w3.org/TR/2001/REC-SVG-20010904/DTD/svg10.dtd">
<svg version="1.0" xmlns="http://www.w3.org/2000/svg"
 width="700.000000pt" height="700.000000pt" viewBox="0 0 700.000000 700.000000"
 preserveAspectRatio="xMidYMid meet">
<metadata>
Created by potrace 1.11, written by Peter Selinger 2001-2013
</metadata>
<g transform="translate(0.000000,700.000000) scale(0.100000,-0.100000)"
fill="#000000" stroke="none">
<path d="M2262 4720 c-4 -3 -19 -41 -33 -85 -63 -190 -398 -1209 -499 -1520
-136 -415 -133 -405 -140 -405 -3 0 -28 69 -57 153 -120 357 -184 543 -192
562 -5 11 -12 29 -14 40 -3 11 -44 133 -92 270 -48 138 -115 333 -150 435 -34
102 -86 253 -115 335 -29 83 -57 165 -63 183 l-10 32 -149 0 c-81 0 -148 -2
-148 -4 0 -2 45 -130 100 -284 55 -154 100 -283 100 -287 0 -4 6 -21 14 -38
16 -37 11 -23 121 -337 47 -135 97 -274 110 -310 37 -102 119 -334 165 -465
23 -66 45 -129 50 -140 4 -11 49 -137 99 -280 51 -143 96 -270 101 -282 9 -21
15 -22 122 -22 l114 0 31 92 c17 51 79 232 138 402 58 171 128 375 155 455 27
80 95 278 150 440 56 162 122 357 148 433 25 75 49 137 53 137 4 0 9 -10 12
-22 2 -13 87 -264 187 -558 100 -294 232 -686 295 -870 62 -184 126 -373 142
-420 l30 -85 115 -1 116 -1 47 131 c91 255 114 321 256 726 17 47 34 94 39
105 4 11 65 182 135 380 70 198 151 428 180 510 150 423 205 579 205 587 0 5
-64 7 -142 6 l-143 -3 -68 -200 c-38 -110 -117 -342 -177 -515 -59 -173 -124
-362 -144 -420 -20 -58 -57 -163 -81 -235 -24 -71 -81 -240 -128 -375 -46
-135 -86 -252 -89 -260 -3 -8 -55 138 -117 325 -61 187 -202 615 -312 950
-111 336 -211 639 -222 675 l-22 65 -108 0 c-59 0 -111 -2 -115 -5z"/>
<path d="M4629 4716 c-2 -2 -3 -59 -1 -125 l3 -121 877 2 876 3 1 120 0 120
-876 3 c-482 1 -877 0 -880 -2z"/>
<path d="M4628 3593 c-1 -27 -1 -84 2 -128 l5 -80 792 0 792 0 3 35 c2 19 2
77 0 128 l-3 92 -794 0 -793 0 -4 -47z"/>
<path d="M4683 2542 l-53 -3 0 -125 0 -124 885 0 c836 0 885 1 886 18 3 59 1
223 -3 227 -5 5 -1633 12 -1715 7z"/>
</g>
</svg>
