<?xml version="1.0" encoding="utf-8"?>
<!-- Generator: Adobe Illustrator 21.1.0, SVG Export Plug-In . SVG Version: 6.00 Build 0)  -->
<svg version="1.1" id="Layer_1" xmlns="http://www.w3.org/2000/svg" xmlns:xlink="http://www.w3.org/1999/xlink" x="0px" y="0px"
	 viewBox="0 0 28 28" style="enable-background:new 0 0 28 28;" xml:space="preserve">
<style type="text/css">
	.st0{fill:#2CA7E0;}
</style>
<path id="Brid_1_" class="st0" d="M28.3,5.6c-1.1,0.5-2.6,1.1-3.8,1.2c1.2-0.7,2.4-2.4,2.9-3.8c-0.9,0.6-2,1.3-3.1,1.7L23.6,4
	c-1.1-1.1-2.1-1.9-3.8-1.9c-3.3,0-5.7,2.5-5.7,5.7c0,0.4,0,0.7,0.1,0.9h-0.1c-5.7,0-9.5-1.2-12.4-4.8c-0.5,0.9-1,1.8-1,2.9
	c0,2,1.3,3.7,2.9,4.8c-1,0-2.1-0.5-2.9-1c0,2.9,4,6.2,6.7,6.7c-1,1-4.4,0.1-4.8,0c0.8,2.3,3.2,3.8,5.7,3.8c-2,1.6-4.4,2.4-7.2,2.4
	c-0.5,0-0.9,0-1.4-0.1c2.6,1.7,6.2,2.5,9.6,2.5c10.8,0,16.3-8.5,16.3-16.3c0-0.3,0-0.7,0-1C26.6,7.9,27.6,6.8,28.3,5.6z"/>
</svg>
